<?xml version="1.0" standalone="no"?><!DOCTYPE svg PUBLIC "-//W3C//DTD SVG 1.1//EN" "http://www.w3.org/Graphics/SVG/1.1/DTD/svg11.dtd"><svg t="1762184780212" class="icon" viewBox="0 0 1024 1024" version="1.1" xmlns="http://www.w3.org/2000/svg" p-id="7660" xmlns:xlink="http://www.w3.org/1999/xlink" width="128" height="128"><path d="M510.5664 87.7056a33.28 33.28 0 0 1 32.9216 28.3648l0.3584 4.9152v17.92A374.1696 374.1696 0 0 1 883.2 478.208h22.3232a33.28 33.28 0 0 1 4.9152 66.1504l-4.9152 0.3584-22.3232 0.0512a374.1696 374.1696 0 0 1-339.3024 339.3024l-0.0512 18.8928a33.28 33.28 0 0 1-66.2016 4.9152l-0.3584-4.9152v-18.8928a374.1696 374.1696 0 0 1-339.3536-339.3024h-19.456a33.28 33.28 0 0 1-4.9152-66.2016l4.9152-0.4096h19.456a374.1696 374.1696 0 0 1 339.3536-339.3024v-17.92a33.28 33.28 0 0 1 33.28-33.28z m33.28 118.0672v24.064a33.28 33.28 0 0 1-66.2016 4.864l-0.3584-4.9152V205.824A307.6096 307.6096 0 0 0 204.8 478.208h22.4256a33.28 33.28 0 0 1 4.9152 66.2016l-4.9152 0.3584H204.8a307.6096 307.6096 0 0 0 272.384 272.4864l0.0512-23.04a33.28 33.28 0 0 1 66.2016-4.9152l0.3584 4.9152v23.04a307.6096 307.6096 0 0 0 272.4352-272.4352h-19.5584a33.28 33.28 0 0 1-4.9152-66.2016l4.9152-0.4096h19.5584a307.6096 307.6096 0 0 0-272.384-272.384z m-33.28 139.3152a166.5024 166.5024 0 1 1 0 333.056 166.5024 166.5024 0 0 1 0-333.056z m0 66.56a99.9424 99.9424 0 1 0 0 199.936 99.9424 99.9424 0 0 0 0-199.936z m0 48.2816a51.5584 51.5584 0 1 1 0 103.168 51.5584 51.5584 0 0 1 0-103.168z" fill="#515151" p-id="7661"></path></svg>