<?xml version="1.0" standalone="no"?><!DOCTYPE svg PUBLIC "-//W3C//DTD SVG 1.1//EN" "http://www.w3.org/Graphics/SVG/1.1/DTD/svg11.dtd"><svg t="1769494255217" class="icon" viewBox="0 0 1024 1024" version="1.1" xmlns="http://www.w3.org/2000/svg" p-id="3511" xmlns:xlink="http://www.w3.org/1999/xlink" width="128" height="128"><path d="M768 938.325333H341.333333s-85.333333-8.021333-85.333333-85.418666v-351.573334c0-56.490667 14.421333-65.536 84.906667-104.789333A155.818667 155.818667 0 0 0 426.666667 254.464C426.666667 147.370667 421.802667 0 567.552 0 615.082667 0 682.666667 44.202667 682.666667 83.626667v170.922666h4.864c39.253333 0 303.616 3.072 336.469333 85.504V596.48s-67.84 341.930667-256 341.930667z m170.666667-564.565333a670.72 670.72 0 0 0-251.136-33.792h-0.853334c-23.125333 0-45.312-8.789333-62.037333-24.746667A87.552 87.552 0 0 1 597.333333 254.464s19.797333-165.546667-28.842666-167.936C509.610667 86.528 512 175.530667 512 254.464a248.234667 248.234667 0 0 1-170.666667 236.373333v359.68c2.218667 0.853333 4.437333 1.706667 6.741334 2.389334H768c64 0 166.485333-152.149333 170.666667-267.605334 4.522667-70.4 4.522667-141.056 0-211.541333zM128 938.666667a42.666667 42.666667 0 0 1-42.666667-42.666667v-426.666667a42.666667 42.666667 0 0 1 85.333334 0v426.666667a42.666667 42.666667 0 0 1-42.666667 42.666667z" fill="" p-id="3512"></path></svg>