<?xml version="1.0" standalone="no"?><!DOCTYPE svg PUBLIC "-//W3C//DTD SVG 1.1//EN" "http://www.w3.org/Graphics/SVG/1.1/DTD/svg11.dtd"><svg t="1768237628808" class="icon" viewBox="0 0 1024 1024" version="1.1" xmlns="http://www.w3.org/2000/svg" p-id="4683" xmlns:xlink="http://www.w3.org/1999/xlink" width="128" height="128"><path d="M519.07072 93.92128a418.14528 418.14528 0 0 1 181.56032 44.77952h-0.00512a418.12992 418.12992 0 0 1-80.83968 777.40032l-0.01024 0.00512a418.6624 418.6624 0 0 1-107.77088 14.0288 418.1504 418.1504 0 0 1-406.48192-515.072 418.1504 418.1504 0 0 1 413.54752-321.14176z m-1.11104 68.25984a349.87008 349.87008 0 1 0-5.9136 699.68384h0.00512a350.24384 350.24384 0 0 0 84.66944-10.32192l5.5296-1.41824a349.8496 349.8496 0 0 0 258.04288-301.92128 349.8496 349.8496 0 0 0-190.41792-348.55424 349.85984 349.85984 0 0 0-151.91552-37.46816z" fill="#000000" p-id="4684"></path><path d="M477.85984 853.33504V128a34.13504 34.13504 0 0 1 68.27008 0v725.33504a34.12992 34.12992 0 0 1-34.13504 34.12992 34.13504 34.13504 0 0 1-34.13504-34.12992z" fill="#000000" p-id="4685"></path><path d="M895.99488 477.86496l1.75616 0.04608a34.14016 34.14016 0 0 1 0 68.17792l-1.75616 0.04608h-384a34.13504 34.13504 0 0 1 0-68.27008h384zM853.32992 349.86496l1.75616 0.04608a34.13504 34.13504 0 0 1 0 68.17792l-1.75616 0.04608H511.99488a34.13504 34.13504 0 0 1 0-68.27008h341.33504zM767.99488 221.86496l1.75616 0.04608a34.14016 34.14016 0 0 1 0 68.17792l-1.75616 0.04608h-256a34.13504 34.13504 0 0 1 0-68.27008h256zM767.99488 733.86496l1.75616 0.04608a34.13504 34.13504 0 0 1 0 68.17792l-1.75616 0.04608h-256a34.13504 34.13504 0 0 1 0-68.27008h256zM853.32992 605.86496l1.75616 0.04608a34.12992 34.12992 0 0 1 32.37376 34.08896 34.12992 34.12992 0 0 1-32.37376 34.08896l-1.75616 0.04608H511.99488a34.13504 34.13504 0 0 1 0-68.27008h341.33504z" fill="#000000" p-id="4686"></path></svg>