<?xml version="1.0" standalone="no"?><!DOCTYPE svg PUBLIC "-//W3C//DTD SVG 1.1//EN" "http://www.w3.org/Graphics/SVG/1.1/DTD/svg11.dtd"><svg t="1762234376258" class="icon" viewBox="0 0 1024 1024" version="1.1" xmlns="http://www.w3.org/2000/svg" p-id="7332" xmlns:xlink="http://www.w3.org/1999/xlink" width="128" height="128"><path d="M352.042667 84.949333a32 32 0 0 0-25.045334 52.373334l85.333334 106.666666a32 32 0 1 0 50.005333-39.978666l-85.333333-106.666667a32 32 0 0 0-24.96-12.373333z m318.954666 0.042667a32 32 0 0 0-24 12.352l-85.333333 106.666667a32 32 0 1 0 50.005333 39.978666l85.333334-106.666666a32 32 0 0 0-26.005334-52.330667zM256 298.666667C138.56 298.666667 42.666667 394.56 42.666667 512s95.893333 213.333333 213.333333 213.333333h117.333333a32 32 0 1 0 0-64H256c-82.837333 0-149.333333-66.496-149.333333-149.333333s66.496-149.333333 149.333333-149.333333h117.333333a32 32 0 1 0 0-64H256z m394.666667 0a32 32 0 1 0 0 64H768c82.837333 0 149.333333 66.496 149.333333 149.333333s-66.496 149.333333-149.333333 149.333333h-117.333333a32 32 0 1 0 0 64H768c117.44 0 213.333333-95.893333 213.333333-213.333333s-95.893333-213.333333-213.333333-213.333333h-117.333333z m-63.957334 468.949333a32 32 0 0 0-25.045333 52.394667l85.333333 106.666666a32 32 0 1 0 50.005334-40.021333l-85.333334-106.666667a32 32 0 0 0-24.96-12.373333z m-150.378666 0.042667a32 32 0 0 0-24 12.330666l-85.333334 106.666667a32 32 0 1 0 50.005334 40.021333l85.333333-106.666666a32 32 0 0 0-26.005333-52.352z" p-id="7333"></path></svg>