<?xml version="1.0" standalone="no"?><!DOCTYPE svg PUBLIC "-//W3C//DTD SVG 1.1//EN" "http://www.w3.org/Graphics/SVG/1.1/DTD/svg11.dtd"><svg t="1765640199393" class="icon" viewBox="0 0 1194 1024" version="1.1" xmlns="http://www.w3.org/2000/svg" p-id="19356" xmlns:xlink="http://www.w3.org/1999/xlink" width="149.25" height="128"><path d="M853.3376 424.021333H341.3376a10.666667 10.666667 0 0 0-10.666667 10.666667v535.978667c0 5.888 4.778667 10.666667 10.666667 10.666666h512a10.666667 10.666667 0 0 0 10.666667-10.666666V434.688A10.666667 10.666667 0 0 0 853.3376 424.021333z m-437.333333 85.333334h362.666666v155.989333h-362.666666V509.354667z m362.666666 386.645333h-362.666666V740.010667h362.666666V896z" fill="#707070" p-id="19357"></path><path d="M480.004267 826.709333a42.666667 42.666667 0 1 0 85.333333 0 42.666667 42.666667 0 0 0-85.333333 0zM480.004267 589.312a42.666667 42.666667 0 1 0 85.333333 0 42.666667 42.666667 0 0 0-85.333333 0z" fill="#707070" p-id="19358"></path><path d="M996.526933 321.194667A426.837333 426.837333 0 0 0 597.5936 45.312a426.666667 426.666667 0 0 0-398.933333 275.797333A267.093333 267.093333 0 0 0 0.004267 580.778667c0.853333 139.178667 108.8 252.416 244.821333 264.533333a10.666667 10.666667 0 0 0 11.605333-10.666667v-80.554666a10.666667 10.666667 0 0 0-9.386666-10.496 166.314667 166.314667 0 0 1-96.085334-45.994667 164.352 164.352 0 0 1-49.578666-118.101333c0-37.376 12.117333-72.533333 34.901333-101.888 22.186667-28.586667 53.589333-49.237333 88.149333-58.282667l50.517334-13.312 18.517333-48.981333a328.106667 328.106667 0 0 1 117.504-151.296 322.816 322.816 0 0 1 186.624-58.88 325.034667 325.034667 0 0 1 256.512 125.696c20.138667 25.685333 36.181333 54.272 47.616 84.650666l18.432 48.810667 50.346667 13.312a165.546667 165.546667 0 0 1-22.613334 324.181333 10.496 10.496 0 0 0-9.216 10.496v80.64c0 6.314667 5.461333 11.178667 11.690667 10.666667C1086.0416 833.024 1193.8176 719.957333 1194.670933 581.12a267.093333 267.093333 0 0 0-198.144-259.84z" fill="#707070" p-id="19359"></path></svg>