<?xml version="1.0" standalone="no"?><!DOCTYPE svg PUBLIC "-//W3C//DTD SVG 1.1//EN" "http://www.w3.org/Graphics/SVG/1.1/DTD/svg11.dtd"><svg t="1769358953237" class="icon" viewBox="0 0 1024 1024" version="1.1" xmlns="http://www.w3.org/2000/svg" p-id="18635" xmlns:xlink="http://www.w3.org/1999/xlink" width="128" height="128"><path d="M139.636364 325.818182h744.727272c27.927273 0 46.545455-18.618182 46.545455-46.545455s-18.618182-46.545455-46.545455-46.545454H139.636364c-27.927273 0-46.545455 18.618182-46.545455 46.545454s18.618182 46.545455 46.545455 46.545455z m605.090909 558.545454H279.272727V372.363636H186.181818v530.618182c0 41.890909 32.581818 74.472727 74.472727 74.472727h502.69091c41.890909 0 74.472727-32.581818 74.472727-74.472727V372.363636h-93.090909v512zM418.909091 232.727273H325.818182V186.181818c0-79.127273 60.509091-139.636364 139.636363-139.636363h93.09091c79.127273 0 139.636364 60.509091 139.636363 139.636363v46.545455h-93.090909V186.181818c0-27.927273-18.618182-46.545455-46.545454-46.545454h-93.09091c-27.927273 0-46.545455 18.618182-46.545454 46.545454v46.545455z m32.581818 432.872727h121.018182l-60.509091-139.636364-60.509091 139.636364z m-41.890909 93.090909l-18.618182 46.545455c-9.309091 23.272727-37.236364 32.581818-60.509091 23.272727-23.272727-9.309091-32.581818-37.236364-23.272727-60.509091L465.454545 400.290909c9.309091-18.618182 27.927273-27.927273 46.545455-27.927273s37.236364 9.309091 46.545455 27.927273l162.90909 363.054546c9.309091 23.272727 0 51.2-23.272727 60.50909-23.272727 9.309091-51.2 0-60.509091-23.272727l-18.618182-46.545454-209.454545 4.654545z" fill="#8a8a8a" p-id="18636"></path></svg>