<?xml version="1.0" standalone="no"?><!DOCTYPE svg PUBLIC "-//W3C//DTD SVG 1.1//EN" "http://www.w3.org/Graphics/SVG/1.1/DTD/svg11.dtd"><svg t="1760711527424" class="icon" viewBox="0 0 1024 1024" version="1.1" xmlns="http://www.w3.org/2000/svg" p-id="2453" xmlns:xlink="http://www.w3.org/1999/xlink" width="128" height="128"><path d="M64 544v-42.688a53.312 53.312 0 1 1 106.688 0V544A53.312 53.312 0 0 1 64 544zM490.688 896V128A42.688 42.688 0 1 1 576 128v768a42.688 42.688 0 0 1-85.312 0z m192-149.312v-448a42.688 42.688 0 1 1 85.312 0v448a42.688 42.688 0 0 1-85.312 0z m192-192v-64a42.688 42.688 0 1 1 85.312 0v64a42.688 42.688 0 0 1-85.312 0zM277.312 352v-42.688a53.312 53.312 0 0 1 106.688 0V352a53.312 53.312 0 0 1-106.688 0z m0 192v-42.688a53.312 53.312 0 0 1 106.688 0V544a53.312 53.312 0 0 1-106.688 0z m0 192v-42.688a53.312 53.312 0 0 1 106.688 0v42.688a53.312 53.312 0 0 1-106.688 0z" p-id="2454"></path></svg>