<?xml version="1.0" standalone="no"?><!DOCTYPE svg PUBLIC "-//W3C//DTD SVG 1.1//EN" "http://www.w3.org/Graphics/SVG/1.1/DTD/svg11.dtd"><svg t="1769323655256" class="icon" viewBox="0 0 1024 1024" version="1.1" xmlns="http://www.w3.org/2000/svg" p-id="8616" xmlns:xlink="http://www.w3.org/1999/xlink" width="128" height="128"><path d="M891.715 602.977a46.08 46.08 0 0 0-46.08 46.08v195.559c0 0.435-0.477 1.034-1.373 1.034H181.427c-0.896 0-1.372-0.6-1.372-1.034V249.349c0-0.43 0.476-1.029 1.372-1.029H343.9c25.452 0 46.08-20.628 46.08-46.08s-20.628-46.08-46.08-46.08H181.427c-51.574 0-93.532 41.805-93.532 93.19v595.266c0 51.39 41.958 93.194 93.532 93.194h662.835c51.574 0 93.533-41.805 93.533-93.194V649.057a46.08 46.08 0 0 0-46.08-46.08z" p-id="8617"></path><path d="M436.577 761.933a46.09 46.09 0 0 0 48.886-43.095c0.061-0.988 6.83-100.163 59.151-204.032 57.703-114.55 145.751-186.942 262.293-215.895l-59.203 164.173a46.085 46.085 0 0 0 86.702 31.262l94.72-262.666a46.095 46.095 0 0 0-28.288-59.182L638.863 81.879c-24.069-8.335-50.293 4.434-58.613 28.483a46.08 46.08 0 0 0 28.482 58.608l143.703 49.705C625.7 259.17 526.597 345.708 462.305 473.334c-60.708 120.53-68.52 234.89-68.823 239.698-1.597 25.42 17.695 47.303 43.095 48.9z" p-id="8618"></path></svg>