<?xml version="1.0" standalone="no"?><!DOCTYPE svg PUBLIC "-//W3C//DTD SVG 1.1//EN" "http://www.w3.org/Graphics/SVG/1.1/DTD/svg11.dtd"><svg t="1781077292702" class="icon" viewBox="0 0 1024 1024" version="1.1" xmlns="http://www.w3.org/2000/svg" p-id="16992" xmlns:xlink="http://www.w3.org/1999/xlink" width="128" height="128"><path d="M837.7344 824.4224H319.232c-93.0816 0-168.7552-75.7248-168.7552-168.7552v-21.4528c0-93.0816 75.7248-168.7552 168.7552-168.7552h385.5872c53.5552 0 97.0752-43.5712 97.0752-97.0752s-43.5712-97.0752-97.0752-97.0752H186.2656v-71.68h518.5024c93.0816 0 168.7552 75.7248 168.7552 168.7552s-75.7248 168.7552-168.7552 168.7552h-385.536c-53.5552 0-97.0752 43.5712-97.0752 97.0752v21.4528c0 53.5552 43.5712 97.0752 97.0752 97.0752h518.5024v71.68z" fill="#515151" p-id="16993"></path><path d="M412.0064 127.3344L308.8896 225.024a7.1168 7.1168 0 0 0 0 10.3424l103.1168 97.6896c4.5568 4.3008 11.9808 1.0752 11.9808-5.1712V132.5056c0-6.2464-7.4752-9.472-11.9808-5.1712zM675.6352 685.7216l-103.1168 97.6896a7.1168 7.1168 0 0 0 0 10.3424l103.1168 97.6896c4.5568 4.3008 11.9808 1.0752 11.9808-5.1712v-195.4304c0-6.2464-7.4752-9.472-11.9808-5.1712z" fill="#515151" p-id="16994"></path></svg>