<?xml version="1.0" standalone="no"?><!DOCTYPE svg PUBLIC "-//W3C//DTD SVG 1.1//EN" "http://www.w3.org/Graphics/SVG/1.1/DTD/svg11.dtd"><svg t="1762607959979" class="icon" viewBox="0 0 1024 1024" version="1.1" xmlns="http://www.w3.org/2000/svg" p-id="7079" xmlns:xlink="http://www.w3.org/1999/xlink" width="128" height="128"><path d="M873.813333 725.333333H825.6V390.826667c0-121.28-58.026667-200.853333-177.173333-242.986667C632.213333 86.186667 576.746667 42.666667 512 42.666667s-120.213333 43.52-136.426667 105.173333C256.426667 189.973333 198.4 269.546667 198.4 390.826667V725.333333h-48.213333c-35.733333 0-64.853333 29.12-64.853334 64.853334s29.12 64.853333 64.853334 64.853333h723.626666c35.733333 0 64.853333-29.12 64.853334-64.853333S909.546667 725.333333 873.813333 725.333333zM512 660.373333c-105.92 0-192-86.08-192-192s86.08-192 192-192 192 86.08 192 192-86.08 192-192 192zM512 981.333333c59.093333 0 109.333333-35.626667 128-85.333333H384c18.666667 49.706667 68.906667 85.333333 128 85.333333z" p-id="7080"></path><path d="M597.333333 469.333333h-85.333333v-85.333333c0-23.573333-19.093333-42.666667-42.666667-42.666667s-42.666667 19.093333-42.666666 42.666667v128c0 23.573333 19.093333 42.666667 42.666666 42.666667h128c23.573333 0 42.666667-19.093333 42.666667-42.666667s-19.093333-42.666667-42.666667-42.666667z" p-id="7081"></path></svg>