<?xml version="1.0" standalone="no"?><!DOCTYPE svg PUBLIC "-//W3C//DTD SVG 1.1//EN" "http://www.w3.org/Graphics/SVG/1.1/DTD/svg11.dtd"><svg t="1768110895052" class="icon" viewBox="0 0 1024 1024" version="1.1" xmlns="http://www.w3.org/2000/svg" p-id="5766" xmlns:xlink="http://www.w3.org/1999/xlink" width="128" height="128"><path d="M109.563786 916.54321m-35.81893 0a35.81893 35.81893 0 1 0 71.63786 0 35.81893 35.81893 0 1 0-71.63786 0Z" fill="#666666" p-id="5767"></path><path d="M943.934156 604.707819L771.160494 400.329218l75.851852-267.588477c2.106996-8.427984 0-16.855967-6.320988-21.069959-6.320988-6.320988-14.748971-6.320988-23.176955-4.213992l-254.946502 111.670782-223.341564-143.27572c-6.320988-4.213992-14.748971-4.213992-21.069958 0-6.320988 4.213992-10.534979 10.534979-10.53498 18.962963l16.855967 273.909465-217.020576 176.987654c-6.320988 4.213992-8.427984 12.641975-6.320988 21.069959 2.106996 8.427984 8.427984 14.748971 16.855968 14.748971L358.1893 634.205761l-189.629629 193.843622c-8.427984 8.427984-8.427984 21.069959 0 29.497942 6.320988 4.213992 10.534979 6.320988 16.855967 6.320988 6.320988 0 10.534979-2.106996 14.748971-6.320988l187.522634-191.736625 84.279835 229.662551c2.106996 8.427984 10.534979 12.641975 16.855967 14.748971h2.106996c6.320988 0 14.748971-4.213992 16.855967-10.534979l147.489712-238.090535 271.802469-21.069959c8.427984 0 14.748971-6.320988 16.855967-12.641975 6.320988-8.427984 4.213992-16.855967 0-23.176955z m-301.300411 14.748971c-6.320988 0-12.641975 4.213992-16.855967 10.53498l-130.633745 210.699588-82.17284-223.341564c-2.106996-6.320988-8.427984-12.641975-14.748971-12.641975l-231.769547-50.567901 189.62963-158.024692c4.213992-4.213992 8.427984-10.534979 8.427983-16.855967l-14.748971-246.518518 200.164609 128.526749c6.320988 4.213992 12.641975 4.213992 18.962963 2.106996l223.341564-96.921811L726.91358 400.329218c-2.106996 6.320988 0 14.748971 4.213992 18.962963l153.8107 181.201646-242.304527 18.962963z" fill="#666666" p-id="5768"></path><path d="M840.691358 111.670782c-6.320988-6.320988-14.748971-6.320988-23.176955-4.213992l-254.946502 111.670782-223.341564-143.27572c-6.320988-4.213992-14.748971-4.213992-21.069958 0-6.320988 4.213992-10.534979 10.534979-10.53498 18.962963l16.855967 273.909465-217.020576 176.987654c-6.320988 4.213992-8.427984 12.641975-6.320988 21.069959 2.106996 8.427984 8.427984 14.748971 16.855968 14.748971L358.1893 634.205761l-189.629629 193.843622c-8.427984 8.427984-8.427984 21.069959 0 29.497942 6.320988 4.213992 10.534979 6.320988 16.855967 6.320988 6.320988 0 10.534979-2.106996 14.748971-6.320988l187.522634-191.736625 84.279835 229.662551c2.106996 8.427984 10.534979 12.641975 16.855967 14.748971h2.106996c6.320988 0 14.748971-4.213992 16.855967-10.534979l63.209877-99.028807c2.106996-4.213992 4.213992-8.427984 4.213992-12.641975 0-12.641975-10.534979-21.069959-21.069959-21.069959-6.320988 0-12.641975 4.213992-16.855967 10.534979L497.251029 842.798354l-82.17284-223.341564c-2.106996-6.320988-8.427984-12.641975-14.748971-12.641975L168.559671 556.246914l189.629629-158.024692c4.213992-4.213992 8.427984-10.534979 8.427984-16.855967l-16.855967-248.625514 200.164609 128.526749c6.320988 4.213992 12.641975 4.213992 18.962963 2.106996l223.341564-96.921811L726.91358 400.329218c-2.106996 6.320988 0 14.748971 4.213992 18.962963l50.567901 61.102881c4.213992 6.320988 10.534979 8.427984 16.855967 8.427983 12.641975 0 21.069959-10.534979 21.069959-21.069959 0-6.320988-2.106996-10.534979-6.320987-14.748971l-42.139918-52.674897 75.851852-267.588477c2.106996-6.320988 0-14.748971-6.320988-21.069959z" fill="#666666" p-id="5769"></path></svg>