<svg xmlns="http://www.w3.org/2000/svg" viewBox="0 0 24 24" fill="none" stroke="currentColor" stroke-width="1.5" stroke-linecap="round" stroke-linejoin="round">
  <!-- Ink brush/brush stroke icon for ink dissipation animation -->
  <!-- Main brush handle -->
  <path d="M12 2 L12 8" />
  <path d="M10 4 L14 4" />
  <!-- Brush head -->
  <path d="M10 8 C8 10, 8 14, 10 16 C11 17, 13 17, 14 16 C16 14, 16 10, 14 8 Z" />
  <!-- Ink drip/dissipation effect -->
  <path d="M10 16 C9 18, 8 20, 7 21" stroke-opacity="0.6" />
  <path d="M14 16 C15 18, 16 20, 17 21" stroke-opacity="0.6" />
  <path d="M12 17 C12 19, 12 21, 11 22" stroke-opacity="0.4" />
  <!-- Ink spread -->
  <ellipse cx="7" cy="21" rx="1" ry="0.5" fill="currentColor" fill-opacity="0.3" />
  <ellipse cx="17" cy="21" rx="1" ry="0.5" fill="currentColor" fill-opacity="0.3" />
  <ellipse cx="11" cy="22" rx="1.5" ry="0.5" fill="currentColor" fill-opacity="0.2" />
</svg>