<?xml version="1.0" standalone="no"?><!DOCTYPE svg PUBLIC "-//W3C//DTD SVG 1.1//EN" "http://www.w3.org/Graphics/SVG/1.1/DTD/svg11.dtd"><svg t="1765640342209" class="icon" viewBox="0 0 1024 1024" version="1.1" xmlns="http://www.w3.org/2000/svg" p-id="25053" xmlns:xlink="http://www.w3.org/1999/xlink" width="128" height="128"><path d="M245.68 205.4m-92.14 0a92.14 92.14 0 1 0 184.28 0 92.14 92.14 0 1 0-184.28 0Z" p-id="25054" fill="#8a8a8a"></path><path d="M959.33 512c0 75.57-18.63 148.24-53.69 212.87-15.09-20.15-36.65-35.2-61.57-42.05 26.45-51.22 41.42-109.31 41.42-170.82 0-205.94-167.54-373.49-373.49-373.49-55.73 0-108.64 12.27-156.2 34.26-7.4-24.95-23.07-46.39-43.82-61.12C373.33 80.94 441.4 64.67 512 64.67c119.49 0 231.82 46.53 316.31 131.02S959.33 392.51 959.33 512zM751.38 890.04c-70.93 45.11-153.3 69.29-239.38 69.29-119.49 0-231.82-46.53-316.31-131.02S64.67 631.49 64.67 512c0-92.06 27.63-179.85 78.95-253.95 11.81 22.79 31.03 41.15 54.44 51.86-37.67 58.29-59.55 127.67-59.55 202.09 0 205.95 167.56 373.49 373.49 373.49 70.69 0 136.84-19.77 193.24-54.02 8.5 24.26 24.91 44.82 46.14 58.57z" p-id="25055" fill="#8a8a8a"></path><path d="M813.66 793.59m-92.14 0a92.14 92.14 0 1 0 184.28 0 92.14 92.14 0 1 0-184.28 0Z" p-id="25056" fill="#8a8a8a"></path><path d="M224 407.31h39.52v209.38H224V407.31zM313 407.31h66.98c61.55 0 80.55 20.21 80.55 69.69 0 52.8-23.53 71.81-80.55 71.81h-27.45v67.88H313V407.31z m62.15 109.52c33.79 0 44.95-8.75 44.95-39.22 0-28.66-11.46-38.32-44.95-38.32h-22.63v77.54h22.63zM477.43 453.77h41.03l41.03 124h1.81l41.33-124h40.43l-60.04 162.92h-45.86l-59.73-162.92zM659.96 536.14c0-80.86 35.3-131.84 118.57-131.84l-0.3 32.58c-48.57 0.3-75.12 23.23-79.05 58.23h0.91c9.35-8.15 25.04-13.88 41.94-13.88 40.73 0 63.66 22.33 63.66 66.98 0 42.24-22.33 71.5-72.41 71.5-40.74 0-73.32-19.61-73.32-83.57z m110.42 12.37c0-26.25-13.27-38.92-35-38.92-28.66 0-39.22 15.09-39.22 35.9 0 28.66 12.07 43.75 36.2 43.75 24.45 0 38.02-13.88 38.02-40.73z" p-id="25057" fill="#8a8a8a"></path></svg>