<?xml version="1.0" standalone="no"?><!DOCTYPE svg PUBLIC "-//W3C//DTD SVG 1.1//EN" "http://www.w3.org/Graphics/SVG/1.1/DTD/svg11.dtd"><svg t="1762234450502" class="icon" viewBox="0 0 1024 1024" version="1.1" xmlns="http://www.w3.org/2000/svg" p-id="10972" xmlns:xlink="http://www.w3.org/1999/xlink" width="128" height="128"><path d="M704.128 468.736H309.76a46.72 46.72 0 0 0-47.552 47.552c0 26.88 20.608 47.488 47.552 47.488h394.368a46.72 46.72 0 0 0 47.552-47.488 46.72 46.72 0 0 0-47.552-47.552z" fill="#172B4D" p-id="10973"></path><path d="M404.8 261.248H287.552c-139.392 0-253.44 115.648-253.44 255.04s114.048 254.976 255.04 254.976h117.184a46.72 46.72 0 0 0 47.552-47.488 46.72 46.72 0 0 0-47.552-47.552H289.152a159.552 159.552 0 0 1-160-160c0-88.64 71.296-159.936 160-159.936h117.184a46.72 46.72 0 0 0 47.552-47.488c0-26.944-22.208-47.552-49.088-47.552zM726.336 261.248H609.088a46.72 46.72 0 0 0-47.488 47.552c0 26.88 20.608 47.488 47.488 47.488h117.248c88.704 0 160 71.296 160 160s-72.96 160-160 160H609.088a46.72 46.72 0 0 0-47.488 47.488c0 26.88 20.608 47.488 47.488 47.488h117.248a254.848 254.848 0 0 0 254.976-254.976c0-140.992-115.584-255.04-254.976-255.04z" fill="#172B4D" p-id="10974"></path></svg>