<?xml version="1.0" standalone="no"?><!DOCTYPE svg PUBLIC "-//W3C//DTD SVG 1.1//EN" "http://www.w3.org/Graphics/SVG/1.1/DTD/svg11.dtd"><svg t="1769494371763" class="icon" viewBox="0 0 1024 1024" version="1.1" xmlns="http://www.w3.org/2000/svg" p-id="4518" xmlns:xlink="http://www.w3.org/1999/xlink" width="128" height="128"><path d="M956.8 646.4l-239.36 239.36-120.32-119.68-45.44 45.44 142.72 142.08a31.04 31.04 0 0 0 44.8 0l261.76-262.4-45.44-45.44z" p-id="4519"></path><path d="M192 131.84h407.04v200.32c0 17.92 14.72 32.64 32.64 32.64H832v271.36h65.28V331.52s-0.64-2.56-0.64-4.48c0-1.28 0-2.56-0.64-3.84a29.696 29.696 0 0 0-7.68-14.72l-232.96-232.96a32.64 32.64 0 0 0-14.72-7.68c-1.28 0-2.56 0-3.84-0.64-1.28 0-2.56-0.64-4.48-0.64H159.36c-17.92 0-32.64 14.72-32.64 32.64v832c0 17.92 14.72 32.64 32.64 32.64h407.04v-65.28H192V131.84z m593.92 167.68h-120.96V178.56l120.96 120.96z" p-id="4520"></path><path d="M260.48 261.76H531.2v64H260.48zM258.816 547.136l0.32-67.2 508.8 2.304-0.32 67.2zM259.2 698.88h256.64v67.2H259.2z" p-id="4521"></path></svg>