<?xml version="1.0" standalone="no"?><!DOCTYPE svg PUBLIC "-//W3C//DTD SVG 1.1//EN" "http://www.w3.org/Graphics/SVG/1.1/DTD/svg11.dtd"><svg t="1767683113806" class="icon" viewBox="0 0 1024 1024" version="1.1" xmlns="http://www.w3.org/2000/svg" p-id="4439" xmlns:xlink="http://www.w3.org/1999/xlink" width="128" height="128"><path d="M512 76.8v870.4a12.8 12.8 0 0 1-12.8 12.8h-38.4a12.8 12.8 0 0 1-12.8-12.8V76.8c0-7.04 5.76-12.8 12.8-12.8h38.4c7.04 0 12.8 5.76 12.8 12.8zM64 135.424v753.152a12.8 12.8 0 0 0 15.936 12.416l294.4-73.6A12.8 12.8 0 0 0 384 814.976V209.024a12.8 12.8 0 0 0-9.664-12.416l-294.4-73.6A12.8 12.8 0 0 0 64 135.424z m63.936 65.536l192 48v526.016l-192 48V200.96zM896 135.424v753.152a12.8 12.8 0 0 1-15.936 12.416l-294.4-73.6A12.8 12.8 0 0 1 576 814.976V209.024a12.8 12.8 0 0 1 9.664-12.416l294.4-73.6a12.8 12.8 0 0 1 15.936 12.416z m-63.936 65.536l-192 48v526.016l192 48V200.96z" fill="#454C59" p-id="4440"></path></svg>