<?xml version="1.0" standalone="no"?><!DOCTYPE svg PUBLIC "-//W3C//DTD SVG 1.1//EN" "http://www.w3.org/Graphics/SVG/1.1/DTD/svg11.dtd"><svg t="1760151734492" class="icon" viewBox="0 0 1024 1024" version="1.1" xmlns="http://www.w3.org/2000/svg" p-id="15483" xmlns:xlink="http://www.w3.org/1999/xlink" width="128" height="128"><path d="M894.72 578.56a179.2 179.2 0 0 1-179.2 179.2h-151.893333a42.666667 42.666667 0 0 0-42.666667 42.666667v34.986666a42.666667 42.666667 0 0 0 42.666667 42.666667h96.426666a30.293333 30.293333 0 1 1 0 60.586667H321.28a30.293333 30.293333 0 1 1 0-60.586667h96.426667a42.666667 42.666667 0 0 0 42.666666-42.666667v-34.986666a42.666667 42.666667 0 0 0-42.666666-42.666667h-153.6A179.2 179.2 0 0 1 85.333333 578.56V306.773333A179.2 179.2 0 0 1 264.106667 128h183.893333a42.666667 42.666667 0 0 1 42.666667 42.666667v91.733333a129.792 129.792 0 0 0 136.96 137.386667h224.426666a42.666667 42.666667 0 0 1 42.666667 42.666666z" p-id="15484"></path><path d="M890.026667 134.4v-17.92a72.917333 72.917333 0 0 0-72.96-72.96h-182.613334A79.317333 79.317333 0 0 0 554.666667 122.88v139.946667a66.773333 66.773333 0 0 0 72.96 72.96h189.013333a72.917333 72.917333 0 0 0 72.96-72.96v-18.346667l48.213333 33.706667c24.32 16.64 43.52 6.4 43.52-22.613334v-132.266666c0-29.013333-19.2-38.826667-43.093333-22.613334z" p-id="15485"></path></svg>