<?xml version="1.0" standalone="no"?><!DOCTYPE svg PUBLIC "-//W3C//DTD SVG 1.1//EN" "http://www.w3.org/Graphics/SVG/1.1/DTD/svg11.dtd"><svg t="1760151713605" class="icon" viewBox="0 0 1024 1024" version="1.1" xmlns="http://www.w3.org/2000/svg" p-id="15318" xmlns:xlink="http://www.w3.org/1999/xlink" width="128" height="128"><path d="M274.773333 766.72c-169.813333 0-221.44-51.626667-221.44-221.44V274.773333c0-169.813333 51.626667-221.44 221.44-221.44H341.333333a32.213333 32.213333 0 0 1 32 32 32.213333 32.213333 0 0 1-32 32H274.773333c-133.973333 0-157.44 23.466667-157.44 157.44v270.08c0 133.973333 23.466667 157.44 157.44 157.44h474.026667c133.973333 0 157.44-23.466667 157.44-157.44v-37.973333a32 32 0 0 1 64 0v37.973333c0.426667 170.24-51.2 221.866667-221.013333 221.866667z" fill="#292D32" p-id="15319"></path><path d="M480 938.666667v-203.946667a32.213333 32.213333 0 0 1 32-32 32.213333 32.213333 0 0 1 32 32V938.666667a32.213333 32.213333 0 0 1-32 32 32.213333 32.213333 0 0 1-32-32zM85.333333 586.666667a32.213333 32.213333 0 0 1-32-32 32.213333 32.213333 0 0 1 32-32h853.333334a32.213333 32.213333 0 0 1 32 32 32.213333 32.213333 0 0 1-32 32z" fill="#292D32" p-id="15320"></path><path d="M320 970.666667a32.213333 32.213333 0 0 1-32-32 32.213333 32.213333 0 0 1 32-32h384a32.213333 32.213333 0 0 1 32 32 32.213333 32.213333 0 0 1-32 32zM762.026667 431.786667H558.933333a103.552 103.552 0 0 1-110.506666-110.506667V171.093333a117.504 117.504 0 0 1 117.333333-117.333333h196.266667a110.634667 110.634667 0 0 1 110.506666 110.506667v157.013333a110.592 110.592 0 0 1-110.506666 110.506667z m-196.266667-314.026667a53.418667 53.418667 0 0 0-53.333333 53.333333v150.186667c0 41.685333 26.538667 46.506667 46.506666 46.506667h203.093334a46.549333 46.549333 0 0 0 46.506666-46.506667V164.266667a46.549333 46.549333 0 0 0-46.506666-46.506667z" fill="#292D32" p-id="15321"></path><path d="M915.2 378.453333a70.741333 70.741333 0 0 1-41.386667-14.506666l-51.626666-36.266667a31.701333 31.701333 0 0 1-13.653334-26.026667V183.893333a31.872 31.872 0 0 1 13.653334-26.026666l51.626666-36.266667a71.936 71.936 0 0 1 41.386667-14.506667 52.522667 52.522667 0 0 1 24.32 5.973334 62.890667 62.890667 0 0 1 30.72 58.88v142.08a62.848 62.848 0 0 1-30.72 58.88 50.730667 50.730667 0 0 1-24.32 5.546666z m-8.533333-201.813333l-34.133334 23.893333v84.48l34.133334 23.893334z" fill="#292D32" p-id="15322"></path></svg>