<?xml version="1.0" standalone="no"?><!DOCTYPE svg PUBLIC "-//W3C//DTD SVG 1.1//EN" "http://www.w3.org/Graphics/SVG/1.1/DTD/svg11.dtd"><svg t="1771416588997" class="icon" viewBox="0 0 1024 1024" version="1.1" xmlns="http://www.w3.org/2000/svg" p-id="21040" xmlns:xlink="http://www.w3.org/1999/xlink" width="128" height="128"><path d="M716.928 366.208v480.416h64V366.208h159.904l-191.904-191.904-191.904 191.904h159.904zM77.28 132.192h95.936V196.16H77.28V132.192z m127.936 0h95.936V196.16H205.216V132.192z m127.936 0h63.968v95.936h-63.968V132.192z m-255.872 223.904h63.968v95.968H77.28v-95.968z m95.936 31.968h95.968v63.968H173.216v-63.968z m127.968 0h95.936v63.968H301.184v-63.968zM77.28 228.16h63.968v95.936H77.28V228.16z m255.872 32h63.968v95.936h-63.968V260.16z m0 383.808v191.904H141.248v-191.904h191.904z m63.936-63.968H77.248v319.808h319.84v-319.84z" p-id="21041"></path></svg>