<?xml version="1.0" standalone="no"?><!DOCTYPE svg PUBLIC "-//W3C//DTD SVG 1.1//EN" "http://www.w3.org/Graphics/SVG/1.1/DTD/svg11.dtd"><svg t="1767074694598" class="icon" viewBox="0 0 1024 1024" version="1.1" xmlns="http://www.w3.org/2000/svg" p-id="16114" xmlns:xlink="http://www.w3.org/1999/xlink" width="128" height="128"><path d="M1023.854 48.832c0-0.512 0-1.609-0.585-2.194 0-1.608-0.511-3.29-1.096-5.482a4.167 4.167 0 0 0-1.097-2.778c0-0.512-0.512-1.608-1.096-2.705a37.793 37.793 0 0 0-1.609-4.386c-0.584-0.585-0.584-1.681-1.096-2.193-0.585-1.096-1.681-2.778-2.193-3.874-0.585-1.097-1.681-2.193-2.193-3.29-0.585-1.096-1.681-2.193-2.193-2.704-0.585-0.585-1.097-1.682-2.193-2.193l-3.29-3.29c-1.096-0.585-1.681-1.681-2.778-2.193-1.096-1.097-2.193-1.681-3.29-2.193l-4.97-3.29c-1.608-1.096-3.29-1.68-4.898-2.193l-4.97-1.681a16.082 16.082 0 0 0-4.898-1.096c-0.585 0-1.097 0-1.097-0.512C976.12 0 974.438 0 972.245 0h-6.068c-3.29 0-5.994 0.585-9.284 1.097-1.096 0-2.193 0.584-3.874 0.584l-1.535 0.512-4.97 1.681c-1.097 0.512-2.194 0.512-3.29 1.609-0.585 0-0.585 0.584-1.097 0.584a11.989 11.989 0 0 0-2.778 1.609L27.925 537.293l-2.778 1.681a30.483 30.483 0 0 0-4.386 3.29c-1.097 1.096-2.193 1.608-3.29 2.705-1.68 1.68-2.777 3.29-3.874 4.386s-2.193 2.777-3.29 3.874c-1.096 1.608-2.193 3.29-2.704 4.898-1.097 1.681-1.682 3.29-2.778 4.97l-1.608 4.898a16.96 16.96 0 0 0-1.097 4.386c-0.585 1.17-0.585 2.194-1.096 3.875 0 1.096-0.585 2.778-0.585 3.874v4.898c0 3.874 0 7.164 1.096 10.965 0.585 1.681 0.585 3.29 1.097 5.483a47.516 47.516 0 0 0 3.874 9.357c0.512 1.096 1.097 2.193 1.608 3.874 0.585 1.097 1.682 2.193 2.194 3.29 2.193 3.29 4.97 6.579 7.675 9.283l1.097 1.097c2.193 1.681 3.874 3.29 6.579 4.97 0.585 0.513 1.17 0.513 2.193 1.097 2.778 1.609 5.555 2.705 7.748 3.802 1.097 0.584 1.609 0.584 2.705 1.096l6.58 1.681c1.096 0 1.68 0.512 2.192 0.512l233.924 46.054h0.512a55.776 55.776 0 0 0 42.325-9.796c12.062-8.772 20.322-21.93 23.027-36.77a56.946 56.946 0 0 0-46.054-65.279l-84.066-18.714 468.359-272.155-287.726 320.402a55.264 55.264 0 0 0-14.255 40.571v3.874l-0.585 296.352c0 32.31 25.805 59.797 56.58 59.797a56.946 56.946 0 0 0 56.58-57.019l0.512-284.363 391.457-435.683-82.312 630.497-180.633-147.59a57.97 57.97 0 0 0-35.161-12.063 56.653 56.653 0 0 0-35.089 100.953l259.07 210.75c1.097 1.097 2.778 2.194 4.386 2.705l2.778 1.682c2.193 1.096 4.971 2.704 7.164 3.29 0.512 0.51 1.608 0.51 2.193 1.096a41.156 41.156 0 0 0 8.772 2.193c1.097 0 1.608 0.511 2.705 0.511 1.681 0 3.874 0.585 5.556 0.585h1.608c3.874 0 7.675-0.585 11.55-1.096 1.096 0 2.193-0.585 3.29-1.097a31.726 31.726 0 0 0 7.675-2.778 64.694 64.694 0 0 0 10.453-5.994c1.097-0.585 2.193-1.681 3.29-2.193a50.878 50.878 0 0 0 8.772-9.357c1.608-2.705 3.874-5.483 4.971-8.187 0.512-1.097 1.097-1.682 1.097-2.778a31.726 31.726 0 0 0 2.704-7.676c0-1.096 0.585-1.681 0.585-2.778a16.228 16.228 0 0 0 1.097-5.482l119.154-910.84c0-1.681 0.512-2.778 0.512-4.386V48.758z" p-id="16115"></path></svg>