<?xml version="1.0" standalone="no"?><!DOCTYPE svg PUBLIC "-//W3C//DTD SVG 1.1//EN" "http://www.w3.org/Graphics/SVG/1.1/DTD/svg11.dtd"><svg t="1777913006302" class="icon" viewBox="0 0 1024 1024" version="1.1" xmlns="http://www.w3.org/2000/svg" p-id="59936" xmlns:xlink="http://www.w3.org/1999/xlink" width="128" height="128"><path d="M480 85.344a32 32 0 0 1 32-32c253.312 0 458.656 205.344 458.656 458.656S765.312 970.656 512 970.656 53.344 765.312 53.344 512c0-82.912 22.016-160.736 60.544-227.936a32 32 0 1 1 55.52 31.84 392.64 392.64 0 0 0-52.064 196.064c0 217.952 176.704 394.656 394.656 394.656s394.656-176.704 394.656-394.656c0-217.984-176.704-394.656-394.656-394.656a32 32 0 0 1-32-32z m0 128a32 32 0 0 1 32-32c182.624 0 330.656 148.032 330.656 330.656S694.624 842.656 512 842.656 181.344 694.624 181.344 512a32 32 0 0 1 64 0A266.656 266.656 0 1 0 512 245.344a32 32 0 0 1-32-32z m32 96a32 32 0 0 0 0 64 138.656 138.656 0 0 1 0 277.312 32 32 0 0 0 0 64 202.656 202.656 0 1 0 0-405.312z" p-id="59937"></path></svg>