<?xml version="1.0" standalone="no"?><!DOCTYPE svg PUBLIC "-//W3C//DTD SVG 1.1//EN" "http://www.w3.org/Graphics/SVG/1.1/DTD/svg11.dtd"><svg t="1769348081704" class="icon" viewBox="0 0 1024 1024" version="1.1" xmlns="http://www.w3.org/2000/svg" p-id="14836" xmlns:xlink="http://www.w3.org/1999/xlink" width="128" height="128"><path d="M654.933333 536.746667v116.48c0 57.472-13.653333 99.84-40.96 127.146666-27.306667 27.306667-69.674667 40.96-127.146666 40.96H370.773333c-57.301333 0-99.626667-13.653333-126.976-40.917333-27.434667-27.306667-41.130667-69.717333-41.130666-127.146667v-116.48c0-57.301333 13.653333-99.584 40.96-126.848 27.306667-27.221333 69.717333-40.874667 127.146666-40.874666h116.48c57.258667 0 99.541333 13.653333 126.805334 40.917333 27.264 27.264 40.874667 69.546667 40.874666 126.762667z m-64 0c0-39.594667-7.381333-66.773333-22.186666-81.493334-14.72-14.805333-41.898667-22.186667-81.493334-22.186666H370.773333c-39.808 0-67.114667 7.424-81.92 22.186666-14.805333 14.762667-22.186667 41.898667-22.186666 81.493334v116.48c0 39.765333 7.424 67.029333 22.314666 81.92 14.890667 14.805333 42.112 22.186667 81.792 22.186666h116.053334c39.808 0 67.114667-7.381333 81.92-22.186666 14.805333-14.805333 22.186667-42.112 22.186666-81.92v-116.48z" p-id="14837"></path><path d="M821.333333 370.346667v116.48c0 57.472-13.653333 99.84-40.96 127.146666-27.306667 27.306667-69.674667 40.96-127.146666 40.96h-30.293334a32 32 0 0 1-32-32v-86.186666c0-39.594667-7.381333-66.773333-22.186666-81.493334-14.805333-14.805333-42.112-22.186667-81.92-22.186666H401.066667a32 32 0 0 1-32-32v-30.72c0-57.472 13.653333-99.84 41.002666-127.018667 27.306667-27.093333 69.632-40.661333 127.146667-40.661333h116.48c57.258667 0 99.498667 13.653333 126.762667 40.874666 27.264 27.306667 40.874667 69.546667 40.874666 126.805334z m-64 0c0-39.594667-7.381333-66.773333-22.144-81.493334-14.762667-14.805333-41.941333-22.186667-81.493333-22.186666h-116.48c-39.893333 0-67.2 7.338667-82.005333 22.058666-14.592 14.506667-21.973333 41.301333-22.144 80.341334h53.76c57.472 0 99.84 13.653333 127.146666 40.874666 27.306667 27.221333 40.96 69.546667 40.96 126.805334v54.186666c38.912-0.213333 65.621333-7.594667 80.213334-22.186666 14.805333-14.805333 22.186667-42.112 22.186666-81.92V370.346667zM970.666667 640A330.666667 330.666667 0 0 1 640 970.666667a32 32 0 0 1-27.477333-48.469334l44.8-74.666666 54.869333 32.938666-11.52 19.242667A266.794667 266.794667 0 0 0 906.581333 640h64zM53.333333 384A330.666667 330.666667 0 0 1 384 53.333333a32 32 0 0 1 27.434667 48.469334l-44.8 74.666666-54.869334-32.938666 11.52-19.242667A266.752 266.752 0 0 0 117.333333 384h-64z" p-id="14838"></path></svg>