<?xml version="1.0" standalone="no"?><!DOCTYPE svg PUBLIC "-//W3C//DTD SVG 1.1//EN" "http://www.w3.org/Graphics/SVG/1.1/DTD/svg11.dtd"><svg t="1765634618491" class="icon" viewBox="0 0 1024 1024" version="1.1" xmlns="http://www.w3.org/2000/svg" p-id="12484" xmlns:xlink="http://www.w3.org/1999/xlink" width="128" height="128"><path d="M484.906667 316.544h54.229333v147.84h-54.229333z" fill="#666666" p-id="12485"></path><path d="M512 257.408a49.28 49.28 0 1 1-49.28 49.28 49.28 49.28 0 0 1 49.28-49.28" fill="#666666" p-id="12486"></path><path d="M621.781333 249.344a34.133333 34.133333 0 0 1-21.333333-7.637333 144.213333 144.213333 0 0 0-177.578667-3.157334 34.261333 34.261333 0 0 1-41.258666-54.698666 210.688 210.688 0 0 1 128-42.666667 212.992 212.992 0 0 1 133.845333 47.445333 34.133333 34.133333 0 0 1-21.333333 60.629334z" fill="#666666" p-id="12487"></path><path d="M666.282667 152.96a34.133333 34.133333 0 0 1-20.949334-7.210667 221.866667 221.866667 0 0 0-267.733333-3.328 34.133333 34.133333 0 1 1-40.576-54.912 290.133333 290.133333 0 0 1 350.250667 4.266667 34.133333 34.133333 0 0 1-20.992 61.184z" fill="#666666" p-id="12488"></path><path d="M204.714667 470.101333a38.4 38.4 0 0 0-38.4 38.4v378.069334a38.4 38.4 0 0 0 38.4 38.4h614.4a38.4 38.4 0 0 0 38.4-38.4v-378.069334a38.4 38.4 0 0 0-38.4-38.4h-614.4m0-68.266666h614.4a106.666667 106.666667 0 0 1 106.666666 106.666666v378.069334a106.666667 106.666667 0 0 1-106.666666 106.666666h-614.4a106.666667 106.666667 0 0 1-106.666667-106.666666v-378.069334a106.666667 106.666667 0 0 1 106.666667-106.666666z" fill="#666666" p-id="12489"></path><path d="M374.016 697.514667m-98.56 0a98.56 98.56 0 1 0 197.12 0 98.56 98.56 0 1 0-197.12 0Z" fill="#FFFFFF" p-id="12490"></path><path d="M374.016 667.221333a30.293333 30.293333 0 1 0 30.293333 30.293334 30.336 30.336 0 0 0-30.293333-30.293334m0-68.266666a98.56 98.56 0 1 1-98.56 98.56 98.56 98.56 0 0 1 98.56-98.56z" fill="#666666" p-id="12491"></path><path d="M669.696 697.514667m-98.56 0a98.56 98.56 0 1 0 197.12 0 98.56 98.56 0 1 0-197.12 0Z" fill="#FFFFFF" p-id="12492"></path><path d="M669.696 667.221333a30.293333 30.293333 0 1 0 30.293333 30.293334 30.336 30.336 0 0 0-30.293333-30.293334m0-68.266666a98.56 98.56 0 1 1-98.56 98.56 98.56 98.56 0 0 1 98.56-98.56z" fill="#666666" p-id="12493"></path></svg>