<?xml version="1.0" standalone="no"?><!DOCTYPE svg PUBLIC "-//W3C//DTD SVG 1.1//EN" "http://www.w3.org/Graphics/SVG/1.1/DTD/svg11.dtd"><svg t="1769398989966" class="icon" viewBox="0 0 1024 1024" version="1.1" xmlns="http://www.w3.org/2000/svg" p-id="20280" xmlns:xlink="http://www.w3.org/1999/xlink" width="128" height="128"><path d="M921.6 512h-40.96l92.16 460.8c0 28.288-22.912 51.2-51.2 51.2H102.4c-28.288 0-51.2-22.912-51.2-51.2L143.36 512H102.4c-28.288 0-51.2-22.912-51.2-51.2v-51.2c0-28.288 22.912-51.2 51.2-51.2h307.2v-256C409.6 45.85 455.45 0 512 0c56.55 0 102.4 45.85 102.4 102.4v256h307.2c28.288 0 51.2 22.912 51.2 51.2v51.2c0 28.288-22.912 51.2-51.2 51.2zM102.4 972.8h155.238c-3.532-5.3-5.196-11.853-4.019-18.611l31.13-227.687c2.457-13.9 15.718-23.219 29.645-20.761 13.926 2.457 23.219 15.744 20.787 29.67l-31.13 227.661c-0.64 3.61-2.048 6.86-3.942 9.728H921.6L819.2 512H204.8L102.4 972.8z m460.8-870.4c0-28.288-22.912-51.2-51.2-51.2-28.288 0-51.2 22.912-51.2 51.2v256h102.4v-256z m358.4 307.2H102.4v51.2h819.2v-51.2z" p-id="20281"></path></svg>