<?xml version="1.0" standalone="no"?><!DOCTYPE svg PUBLIC "-//W3C//DTD SVG 1.1//EN" "http://www.w3.org/Graphics/SVG/1.1/DTD/svg11.dtd"><svg t="1760108775814" class="icon" viewBox="0 0 1024 1024" version="1.1" xmlns="http://www.w3.org/2000/svg" p-id="10712" xmlns:xlink="http://www.w3.org/1999/xlink" width="128" height="128"><path d="M785.92 102.229333H238.08a97.621333 97.621333 0 0 0-97.621333 97.621334v422.570666a97.621333 97.621333 0 0 0 97.621333 97.621334h239.616v54.613333c-18.773333 8.192-33.792 23.552-40.96 43.008h-86.357333c-19.114667 0-34.133333 15.018667-34.133334 34.133333 0 18.773333 15.018667 34.133333 34.133334 34.133334h93.184a76.5952 76.5952 0 0 0 129.706666 0h100.352c18.773333 0 34.133333-15.36 34.133334-34.133334 0-19.114667-15.36-34.133333-34.133334-34.133333h-93.525333c-6.144-16.725333-18.432-30.72-34.133333-39.594667v-58.026666h239.957333a97.621333 97.621333 0 0 0 97.621333-97.621334V199.850667a97.621333 97.621333 0 0 0-97.621333-97.621334z m-274.090667 548.181334c-18.397867 0-34.133333-15.325867-34.133333-34.133334 0-18.432 15.701333-34.133333 34.133333-34.133333 18.773333 0 34.133333 15.701333 34.133334 34.133333 0 18.568533-14.916267 34.133333-34.133334 34.133334z m269.312-165.888c0 15.701333-12.629333 28.330667-28.330666 28.330666H271.189333c-15.701333 0-28.330667-12.629333-28.330666-28.330666v-251.562667c0-15.701333 12.629333-28.330667 28.330666-28.330667h481.621334c15.701333 0 28.330667 12.629333 28.330666 28.330667v251.562667z" p-id="10713"></path></svg>