<?xml version="1.0" standalone="no"?><!DOCTYPE svg PUBLIC "-//W3C//DTD SVG 1.1//EN" "http://www.w3.org/Graphics/SVG/1.1/DTD/svg11.dtd"><svg t="1769012027660" class="icon" viewBox="0 0 1024 1024" version="1.1" xmlns="http://www.w3.org/2000/svg" p-id="9922" xmlns:xlink="http://www.w3.org/1999/xlink" width="128" height="128"><path d="M511.829333 611.84c20.650667 0 37.546667 8.448 50.688 26.282667 12.202667 15.957333 18.773333 37.546667 18.773334 65.706666 0 41.301333-12.202667 77.909333-36.608 108.885334-24.405333 30.037333-57.258667 50.688-96.682667 61.952v-46.933334a115.669333 115.669333 0 0 0 59.136-41.301333c13.141333-18.773333 20.650667-39.424 20.650667-61.909333-3.754667 1.834667-11.264 2.773333-20.650667 2.773333a53.76 53.76 0 0 1-39.424-15.957333 56.661333 56.661333 0 0 1-16.896-41.301334c0-17.834667 4.693333-31.914667 15.957333-42.24 11.264-11.264 26.282667-15.957333 45.056-15.957333zM341.333333 821.333333a32 32 0 0 1-32 32h-192a32 32 0 0 1-32-32v-21.333333a32 32 0 0 1 32-32H256V256H117.333333A32 32 0 0 1 85.333333 224v-21.333333A32 32 0 0 1 117.333333 170.666667h192a32 32 0 0 1 32 32v618.666666z m597.333334-597.333333a32 32 0 0 1-32 32H768v512h138.666667a32 32 0 0 1 32 32v21.333333a32 32 0 0 1-32 32h-192a32 32 0 0 1-32-32V202.666667a32 32 0 0 1 32-32h192a32 32 0 0 1 32 32v21.333333zM510.890667 308.138667c16.896 0 30.037333 5.632 41.301333 16.896 11.264 10.325333 16.896 24.405333 16.896 41.301333s-5.632 30.037333-16.896 41.301333a58.282667 58.282667 0 0 1-41.301333 15.957334c-16.896 0-30.976-5.632-41.301334-15.957334-11.264-11.264-15.957333-24.405333-15.957333-41.301333s4.693333-30.976 15.957333-41.301333c10.325333-11.264 24.405333-16.896 41.301334-16.896z" p-id="9923"></path></svg>