<?xml version="1.0" standalone="no"?><!DOCTYPE svg PUBLIC "-//W3C//DTD SVG 1.1//EN" "http://www.w3.org/Graphics/SVG/1.1/DTD/svg11.dtd"><svg t="1765634450202" class="icon" viewBox="0 0 1024 1024" version="1.1" xmlns="http://www.w3.org/2000/svg" p-id="5952" xmlns:xlink="http://www.w3.org/1999/xlink" width="128" height="128"><path d="M149.333333 240.768A48.768 48.768 0 0 1 198.101333 192h621.717334a48.768 48.768 0 0 1 48.746666 48.768v438.848a48.768 48.768 0 0 1-48.746666 48.768h-18.304a42.666667 42.666667 0 0 0 0 85.333333h18.304a134.101333 134.101333 0 0 0 134.08-134.101333V240.768A134.101333 134.101333 0 0 0 819.84 106.666667H198.101333A134.101333 134.101333 0 0 0 64 240.768v438.848a134.101333 134.101333 0 0 0 134.101333 134.101333h18.282667a42.666667 42.666667 0 0 0 0-85.333333h-18.282667A48.768 48.768 0 0 1 149.333333 679.616V240.768z" fill="#8a8a8a" p-id="5953"></path><path d="M523.008 655.338667a21.333333 21.333333 0 0 0-28.096 0L277.397333 845.653333c-14.826667 12.970667-5.653333 37.397333 14.037334 37.397334h435.029333c19.690667 0 28.864-24.426667 14.037333-37.397334L523.008 655.36zM605.525333 571.690667a128 128 0 0 0-181.013333 0 42.666667 42.666667 0 0 1-60.330667-60.330667c83.306667-83.306667 218.368-83.306667 301.674667 0a42.666667 42.666667 0 0 1-60.330667 60.330667z m105.6-105.6c-108.309333-108.288-283.904-108.288-392.213333 0a42.666667 42.666667 0 0 1-60.330667-60.330667c141.632-141.610667 371.242667-141.610667 512.853334 0a42.666667 42.666667 0 0 1-60.330667 60.330667z" fill="#8a8a8a" p-id="5954"></path></svg>