<?xml version="1.0" standalone="no"?><!DOCTYPE svg PUBLIC "-//W3C//DTD SVG 1.1//EN" "http://www.w3.org/Graphics/SVG/1.1/DTD/svg11.dtd"><svg t="1765787499077" class="icon" viewBox="0 0 1024 1024" version="1.1" xmlns="http://www.w3.org/2000/svg" p-id="3278" xmlns:xlink="http://www.w3.org/1999/xlink" width="128" height="128"><path d="M128 238.933333C128 201.216 162.389333 170.666667 204.8 170.666667h614.4c42.410667 0 76.8 30.549333 76.8 68.266666v460.8c0 37.717333-34.389333 68.266667-76.8 68.266667H204.8c-42.410667 0-76.8-30.549333-76.8-68.266667V238.933333z m246.784 311.04c15.957333 10.453333 37.376 3.84 50.218667-10.24a117.034667 117.034667 0 0 1 86.826666-38.4c34.389333 0 65.365333 14.805333 86.826667 38.4 12.8 14.08 34.261333 20.693333 50.218667 10.24 13.397333-8.789333 18.133333-26.538667 8.533333-39.381333a181.077333 181.077333 0 0 0-145.578667-73.258667 181.077333 181.077333 0 0 0-145.621333 73.258667c-9.557333 12.842667-4.821333 30.592 8.576 39.381333z m-118.698667-77.994666c14.208 9.386667 33.109333 5.888 44.672-6.570667a287.232 287.232 0 0 1 211.072-92.074667c83.370667 0 158.506667 35.413333 211.072 92.074667 11.562667 12.458667 30.464 15.914667 44.629334 6.570667 15.402667-10.112 19.285333-31.146667 7.04-44.928a351.146667 351.146667 0 0 0-262.741334-117.717334 351.146667 351.146667 0 0 0-262.741333 117.76c-12.245333 13.738667-8.362667 34.773333 6.997333 44.885334z" fill="#62696A" p-id="3279"></path><path d="M341.333333 810.666667a42.666667 42.666667 0 1 0 0 85.333333h341.333334a42.666667 42.666667 0 1 0 0-85.333333H341.333333z" fill="#62696A" p-id="3280"></path></svg>