<?xml version="1.0" standalone="no"?><!DOCTYPE svg PUBLIC "-//W3C//DTD SVG 1.1//EN" "http://www.w3.org/Graphics/SVG/1.1/DTD/svg11.dtd"><svg t="1765640070061" class="icon" viewBox="0 0 1024 1024" version="1.1" xmlns="http://www.w3.org/2000/svg" p-id="13632" xmlns:xlink="http://www.w3.org/1999/xlink" width="128" height="128"><path d="M865.472 128a64 64 0 0 1 64 64v512a64 64 0 0 1-64 64H543.936v96h129.408a32 32 0 1 1 0 64h-320a32 32 0 1 1 0-64h126.592V768H158.976a64 64 0 0 1-64-64V192a64 64 0 0 1 64-64h706.496z m0 64H158.976v512h706.496V192zM549.888 382.72v92.288c0 8.192 2.304 14.72 6.848 19.328 4.544 4.608 10.88 6.912 19.008 6.912a25.6 25.6 0 0 0 18.944-6.848c4.544-4.544 6.848-11.008 6.848-19.392V382.656h46.592v90.176c0 8.96-1.344 17.344-4.16 25.28a54.656 54.656 0 0 1-13.056 20.864 52.224 52.224 0 0 1-18.752 12.544 94.08 94.08 0 0 1-32.64 5.056c-7.424 0-15.424-0.576-24.128-1.6a62.976 62.976 0 0 1-21.76-6.144 54.592 54.592 0 0 1-16.064-12.992 47.936 47.936 0 0 1-9.984-17.472 90.368 90.368 0 0 1-4.352-25.6V382.72h46.656zM259.84 380.16c19.328 0 34.048 3.52 44.16 10.752 10.176 7.168 16.192 18.56 18.112 34.24l-44.032 2.56c-1.152-6.784-3.648-11.712-7.36-14.784a23.68 23.68 0 0 0-15.552-4.672c-5.44 0-9.536 1.152-12.288 3.456a10.56 10.56 0 0 0-4.096 8.384c0 2.432 1.152 4.608 3.392 6.528 2.24 1.984 7.424 3.84 15.68 5.568 20.48 4.416 35.072 8.832 43.904 13.376a46.08 46.08 0 0 1 19.264 16.704c4.032 6.72 6.016 14.144 6.016 22.4a47.936 47.936 0 0 1-8 26.816 50.304 50.304 0 0 1-22.528 18.56c-9.6 4.288-21.76 6.4-36.352 6.4-25.728 0-43.52-4.928-53.44-14.848a58.56 58.56 0 0 1-16.832-37.76l44.48-2.752a33.92 33.92 0 0 0 5.888 16.448 24.704 24.704 0 0 0 20.608 9.216 22.848 22.848 0 0 0 15.36-4.672 14.08 14.08 0 0 0 5.44-10.88 13.888 13.888 0 0 0-5.12-10.56c-3.456-3.072-11.456-6.016-23.936-8.768-20.48-4.608-35.072-10.688-43.84-18.368a36.928 36.928 0 0 1-13.184-29.184 39.68 39.68 0 0 1 6.72-22.016 44.8 44.8 0 0 1 20.352-16.256c9.024-3.968 21.44-5.952 37.12-5.952z m222.08 2.56v37.312h-47.616v113.856h-46.72v-113.92h-47.616V382.72h142.016z m241.024 0l56.96 83.584V382.72h44.032v151.232h-44.032l-56.64-83.008v83.008h-43.904V382.656h43.584z" fill="#262626" p-id="13633"></path></svg>