<?xml version="1.0" standalone="no"?><!DOCTYPE svg PUBLIC "-//W3C//DTD SVG 1.1//EN" "http://www.w3.org/Graphics/SVG/1.1/DTD/svg11.dtd"><svg t="1762184747008" class="icon" viewBox="0 0 1024 1024" version="1.1" xmlns="http://www.w3.org/2000/svg" p-id="5737" xmlns:xlink="http://www.w3.org/1999/xlink" width="128" height="128"><path d="M987.415273 460.8h-40.215273c-3.723636-25.6-7.354182-51.2-14.615273-73.169455A431.662545 431.662545 0 0 0 566.830545 84.154182V36.584727C566.923636 14.615273 541.230545 0 512 0c-29.230545 0-54.923636 14.615273-54.923636 36.584727v43.845818c-10.891636 0-21.876364 3.723636-32.861091 3.723637A434.734545 434.734545 0 0 0 76.8 457.076364H36.584727C14.615273 457.076364 0 482.769455 0 512c0 29.230545 14.615273 54.923636 36.584727 54.923636h40.215273c25.6 201.076364 182.830545 358.4 380.369455 380.276364v40.215273c0 21.969455 25.6 36.584727 54.830545 36.584727 29.230545 0 54.923636-14.615273 54.923636-36.584727v-40.215273c40.122182-3.723636 80.430545-14.615273 116.922182-32.954182C833.815273 852.154182 929.047273 716.8 947.2 563.2h40.215273c21.969455 0 36.584727-25.6 36.584727-54.923636 0-25.506909-18.245818-47.476364-36.584727-47.476364zM841.169455 614.4c-51.2 168.215273-223.138909 270.615273-398.615273 237.754182a344.436364 344.436364 0 0 1-274.338909-373.108364A345.367273 345.367273 0 0 1 512 168.215273c47.476364 0 91.415273 7.354182 135.354182 25.6A340.619636 340.619636 0 0 1 841.169455 614.4zM512 292.584727A220.066909 220.066909 0 0 0 292.584727 512 220.066909 220.066909 0 0 0 512 731.415273 220.066909 220.066909 0 0 0 731.415273 512 220.066909 220.066909 0 0 0 512 292.584727z" fill="#2D3040" p-id="5738"></path></svg>