<?xml version="1.0" standalone="no"?><!DOCTYPE svg PUBLIC "-//W3C//DTD SVG 1.1//EN" "http://www.w3.org/Graphics/SVG/1.1/DTD/svg11.dtd"><svg t="1771417049263" class="icon" viewBox="0 0 1024 1024" version="1.1" xmlns="http://www.w3.org/2000/svg" p-id="28011" xmlns:xlink="http://www.w3.org/1999/xlink" width="128" height="128"><path d="M430.4 548.8h73.6v195.2h-73.6z" p-id="28012"></path><path d="M777.6 353.6H142.4c-40 0-73.6 32-73.6 73.6v438.4c0 40 32 73.6 73.6 73.6h633.6c40 0 73.6-32 73.6-73.6V427.2c0-41.6-32-73.6-72-73.6z m0 512H142.4V427.2h633.6v438.4zM676.8 292.8c0-73.6 60.8-134.4 134.4-134.4s134.4 60.8 134.4 134.4v60.8h73.6v-60.8c0-115.2-92.8-208-208-208s-208 92.8-208 208v60.8h73.6v-60.8z" p-id="28013"></path></svg>