<?xml version="1.0" standalone="no"?><!DOCTYPE svg PUBLIC "-//W3C//DTD SVG 1.1//EN" "http://www.w3.org/Graphics/SVG/1.1/DTD/svg11.dtd"><svg t="1765706061246" class="icon" viewBox="0 0 1024 1024" version="1.1" xmlns="http://www.w3.org/2000/svg" p-id="27277" xmlns:xlink="http://www.w3.org/1999/xlink" width="128" height="128"><path d="M725.333333 512l-30.165333-30.165333a42.666667 42.666667 0 0 0 0 60.330666L725.333333 512z m190.293334 183.082667l3.413333-42.538667-3.413333 42.538667z m17.92-7.381334l-32.426667-27.733333 32.426667 27.733333z m-53.162667-330.752l30.165333 30.165334-30.165333-30.165334z m35.285333-28.032l3.328 42.538667-3.328-42.538667z m17.92 7.381334l-32.469333 27.733333 32.426667-27.733333zM155.178667 796.714667l-19.370667 38.016 19.370667-38.016z m-55.936-55.936l-38.016 19.370666 38.016-19.370666z m612.096 0l38.016 19.370666-38.016-19.370666z m-55.936 55.936l19.370666 38.016-19.370666-38.016z m0-569.429334l19.370666-38.016-19.370666 38.016z m55.936 55.936l38.016-19.370666-38.016 19.370666zM155.221333 227.285333l-19.370666-38.016 19.370666 38.016zM99.285333 283.221333l-38.016-19.370666 38.016 19.370666z m750.933334 43.52l-155.050667 155.093334 60.330667 60.330666 155.050666-155.050666-60.330666-60.330667z m-155.050667 215.466667l155.050667 155.008 60.330666-60.330667-155.050666-155.050666-60.330667 60.330666zM981.333333 642.858667V381.098667h-85.333333v261.888h85.333333z m-131.114666 54.314666c8.533333 8.533333 16.981333 17.066667 24.32 23.210667 6.272 5.248 19.498667 15.786667 37.76 17.194667l6.698666-85.077334c5.76 0.469333 9.557333 2.346667 10.88 3.072 1.194667 0.64 1.152 0.810667-0.554666-0.64a140.245333 140.245333 0 0 1-7.125334-6.570666 1043.370667 1043.370667 0 0 1-11.648-11.52l-60.330666 60.330666zM896 642.986667c0 6.528 0 11.818667-0.085333 16.341333a142.037333 142.037333 0 0 1-0.426667 9.685333c-0.170667 2.218667-0.298667 2.133333 0.085333 0.853334a27.392 27.392 0 0 1 5.546667-9.813334l64.853333 55.381334c11.946667-13.952 13.824-30.72 14.549334-38.869334 0.853333-9.557333 0.810667-21.504 0.810666-33.578666h-85.333333z m16.298667 94.72a64 64 0 0 0 53.717333-22.272l-64.896-55.424a21.333333 21.333333 0 0 1 17.92-7.424l-6.741333 85.077333z m-1.706667-350.549334c4.608-4.650667 8.362667-8.362667 11.605333-11.52 3.285333-3.2 5.546667-5.248 7.125334-6.570666 1.706667-1.450667 1.749333-1.28 0.554666-0.64a27.477333 27.477333 0 0 1-10.88 3.072l-6.698666-85.077334c-18.261333 1.408-31.488 11.946667-37.76 17.194667-7.338667 6.144-15.786667 14.634667-24.32 23.210667l60.330666 60.330666zM981.333333 381.013333c0-12.074667 0.042667-24.021333-0.810666-33.578666-0.725333-8.106667-2.602667-24.917333-14.506667-38.869334L901.12 364.032a27.392 27.392 0 0 1-5.546667-9.856c-0.426667-1.28-0.256-1.365333-0.042666 0.853333 0.170667 2.090667 0.298667 5.12 0.426666 9.685334L896 381.013333h85.333333z m-62.293333-9.6a21.333333 21.333333 0 0 1-17.92-7.424l64.853333-55.466666a64 64 0 0 0-53.674666-22.186667l6.698666 85.077333zM290.133333 256h230.4V170.666667H290.133333v85.333333zM682.666667 418.133333v187.733334h85.333333V418.133333h-85.333333zM520.533333 768H290.133333v85.333333h230.4v-85.333333zM128 605.866667V418.133333H42.666667v187.733334h85.333333zM290.133333 768c-36.565333 0-61.397333 0-80.597333-1.621333-18.688-1.493333-28.288-4.266667-34.944-7.68l-38.741333 76.032c20.693333 10.538667 42.752 14.762667 66.730666 16.725333C226.048 853.333333 254.976 853.333333 290.133333 853.333333v-85.333333zM42.666667 605.866667c0 35.157333 0 64.042667 1.877333 87.552 1.962667 23.978667 6.186667 46.037333 16.725333 66.730666l76.032-38.741333c-3.413333-6.656-6.186667-16.213333-7.68-34.944C128 667.264 128 642.432 128 605.866667H42.666667z m131.925333 152.832a85.333333 85.333333 0 0 1-37.290667-37.290667l-76.032 38.741333a170.666667 170.666667 0 0 0 74.581334 74.581334l38.741333-76.032zM682.666667 605.866667c0 36.565333 0 61.397333-1.621334 80.597333-1.493333 18.688-4.266667 28.288-7.68 34.944l76.032 38.741333c10.538667-20.693333 14.762667-42.752 16.725334-66.730666 1.92-23.466667 1.877333-52.394667 1.877333-87.552h-85.333333zM520.533333 853.333333c35.157333 0 64.042667 0 87.552-1.877333 23.978667-1.962667 46.037333-6.186667 66.730667-16.725333l-38.741333-76.032c-6.656 3.413333-16.213333 6.186667-34.944 7.68-19.2 1.578667-44.032 1.621333-80.597334 1.621333v85.333333z m152.832-131.925333a85.333333 85.333333 0 0 1-37.290666 37.290667l38.741333 76.032a170.666667 170.666667 0 0 0 74.581333-74.581334l-76.032-38.741333zM520.533333 256c36.565333 0 61.397333 0 80.597334 1.621333 18.688 1.493333 28.288 4.266667 34.944 7.68l38.741333-76.032c-20.693333-10.538667-42.752-14.762667-66.730667-16.725333C584.618667 170.666667 555.690667 170.666667 520.533333 170.666667v85.333333zM768 418.133333c0-35.157333 0-64.042667-1.877333-87.552-1.962667-23.978667-6.186667-46.037333-16.725334-66.730666l-76.032 38.741333c3.413333 6.656 6.186667 16.213333 7.68 34.944C682.666667 356.736 682.666667 381.568 682.666667 418.133333h85.333333z m-131.925333-152.832a85.333333 85.333333 0 0 1 37.290666 37.290667l76.032-38.741333a170.666667 170.666667 0 0 0-74.581333-74.581334l-38.741333 76.032zM290.133333 170.666667c-35.157333 0-64.042667 0-87.552 1.877333-23.978667 1.962667-46.037333 6.186667-66.730666 16.725333l38.741333 76.032c6.656-3.413333 16.213333-6.186667 34.944-7.68C228.736 256 253.568 256 290.133333 256V170.666667zM128 418.133333c0-36.565333 0-61.397333 1.621333-80.597333 1.493333-18.688 4.266667-28.288 7.68-34.944l-76.032-38.741333c-10.538667 20.693333-14.762667 42.752-16.725333 66.730666C42.666667 354.048 42.666667 382.976 42.666667 418.133333h85.333333z m7.850667-228.864a170.666667 170.666667 0 0 0-74.581334 74.581334l76.032 38.741333a85.333333 85.333333 0 0 1 37.290667-37.290667l-38.741333-76.032z" p-id="27278"></path></svg>